<svg id="Group_137" data-name="Group 137" xmlns="http://www.w3.org/2000/svg" width="28.311" height="28.347" viewBox="0 0 28.311 28.347">
  <g id="chat" transform="translate(0)">
    <path id="Path_518" data-name="Path 518" d="M34.8-490.512a14.056,14.056,0,0,0-9.012,4.188,13.7,13.7,0,0,0-3.39,5.517,13.774,13.774,0,0,0-.7,4.46,13.475,13.475,0,0,0,1.008,5.289c.606,1.447.693,1.757.662,2.258a5.486,5.486,0,0,1-.309,1.33,6.373,6.373,0,0,0-.476,2.14,2.083,2.083,0,0,0,.452,1.435,2.176,2.176,0,0,0,1.219.761,4.554,4.554,0,0,0,2.542-.39,4.186,4.186,0,0,1,1.6-.353c.513-.006.551.006,1.7.47a15.417,15.417,0,0,0,3.124.971,14.5,14.5,0,0,0,7.237-.526,18.18,18.18,0,0,0,2.895-1.373,14.151,14.151,0,0,0,6.229-8.517,12.5,12.5,0,0,0,.427-3.526,13.177,13.177,0,0,0-1.447-6.247,13.152,13.152,0,0,0-2.691-3.773,14.089,14.089,0,0,0-6.99-3.823A15.093,15.093,0,0,0,34.8-490.512Zm1.948,1.979a12,12,0,0,1,7.794,3.606,12.232,12.232,0,0,1,3.414,6.94,16.054,16.054,0,0,1-.031,3.4,12.148,12.148,0,0,1-9.6,10.144,12.324,12.324,0,0,1-7.522-.8,4.872,4.872,0,0,0-4.509-.186,4.192,4.192,0,0,1-1.6.371c-.142-.037-.142-.056-.111-.421a7.884,7.884,0,0,1,.34-1.342,5.237,5.237,0,0,0,.427-2.338,6.4,6.4,0,0,0-.68-2.332,12.344,12.344,0,0,1-.971-5.728,12.173,12.173,0,0,1,6.878-10.138,12.214,12.214,0,0,1,4.274-1.169A8.477,8.477,0,0,1,36.749-488.533Z" transform="translate(-21.7 490.546)" fill="#06c"/>
  </g>
  <g id="Group_123" data-name="Group 123" transform="translate(7.413 12.781)">
    <ellipse id="Ellipse_15" data-name="Ellipse 15" cx="2.13" cy="2.13" rx="2.13" ry="2.13" transform="translate(0 0)" fill="#06c"/>
    <ellipse id="Ellipse_16" data-name="Ellipse 16" cx="2.13" cy="2.13" rx="2.13" ry="2.13" transform="translate(5.112 0)" fill="#06c"/>
    <ellipse id="Ellipse_17" data-name="Ellipse 17" cx="2.13" cy="2.13" rx="2.13" ry="2.13" transform="translate(10.225 0)" fill="#06c"/>
  </g>
</svg>
