<svg xmlns="http://www.w3.org/2000/svg" width="128" height="128" viewBox="0 0 128 128">
  <g id="Group_149" data-name="Group 149" transform="translate(-151 -896)">
    <circle id="Ellipse_28" data-name="Ellipse 28" cx="64" cy="64" r="64" transform="translate(151 896)" fill="#0166cc"/>
    <path id="Path_597" data-name="Path 597" d="M100,37H28a4.012,4.012,0,0,0-4,4V83a4.012,4.012,0,0,0,4,4H48v15.1a1,1,0,0,0,1.6.8L72,87h28a4.012,4.012,0,0,0,4-4V41A4.012,4.012,0,0,0,100,37Z" transform="translate(151 896)" fill="#fff"/>
    <text id="_" data-name="+" transform="translate(199 976)" fill="#0166cc" font-size="54" font-family="Montserrat Thin" font-weight="700"><tspan x="0" y="0">+</tspan></text>
  </g>
</svg>
