<svg xmlns="http://www.w3.org/2000/svg" width="25.855" height="25.855" viewBox="0 0 25.855 25.855">
  <g id="_9057210_loadbar_doc_icon" data-name="9057210_loadbar_doc_icon" transform="translate(-4 -3)">
    <path id="Path_601" data-name="Path 601" d="M25.007,5.873H8.848A1.534,1.534,0,0,0,7.232,7.309V24.546a1.534,1.534,0,0,0,1.616,1.436h16.16a1.534,1.534,0,0,0,1.616-1.436V7.309A1.534,1.534,0,0,0,25.007,5.873ZM8.848,3A4.6,4.6,0,0,0,4,7.309V24.546a4.6,4.6,0,0,0,4.848,4.309h16.16a4.6,4.6,0,0,0,4.848-4.309V7.309A4.6,4.6,0,0,0,25.007,3Z" transform="translate(0)" fill="#004f9f" fill-rule="evenodd"/>
    <path id="Path_602" data-name="Path 602" d="M8,7h3.232v3.232H8Z" transform="translate(2.464 2.476)" fill="#004f9f"/>
    <path id="Path_608" data-name="Path 608" d="M8,7h8.08v3.232H8Z" transform="translate(2.464 7.333)" fill="#004f9f"/>
    <path id="Path_611" data-name="Path 611" d="M8,7h3.232v3.232H8Z" transform="translate(2.464 12.191)" fill="#004f9f"/>
    <path id="Path_604" data-name="Path 604" d="M8,7h3.232v3.232H8Z" transform="translate(7.312 2.476)" fill="#004f9f"/>
    <path id="Path_610" data-name="Path 610" d="M8,7h3.232v3.232H8Z" transform="translate(7.312 12.191)" fill="#004f9f"/>
    <path id="Path_606" data-name="Path 606" d="M8,7h3.232V19.946H8Z" transform="translate(12.16 2.476)" fill="#004f9f"/>
  </g>
</svg>
