<svg xmlns="http://www.w3.org/2000/svg" width="47" height="47" viewBox="0 0 47 47">
  <g id="Group_138" data-name="Group 138" transform="translate(-944 -2462)">
    <g id="Group_135" data-name="Group 135" transform="translate(928 368)">
      <circle id="Ellipse_18" data-name="Ellipse 18" cx="23.5" cy="23.5" r="23.5" transform="translate(16 2094)" fill="#06c"/>
      <g id="home" transform="translate(23.38 2101.378)">
        <path id="Path_517" data-name="Path 517" d="M15.856-511.72a3.648,3.648,0,0,0-.586.309c-.13.086-3.247,3.179-6.938,6.87-5.407,5.42-6.734,6.778-6.864,7.037a2.9,2.9,0,0,0,.512,3.42,2.931,2.931,0,0,0,2.117.858h.42v4.938c0,3.339.025,5.037.068,5.259A3.553,3.553,0,0,0,6.85-480.5c.407.142.438.142,3.42.142,2.938,0,3.006,0,3.173-.13a1.682,1.682,0,0,0,.3-.3c.13-.167.13-.247.16-4.29l.031-4.123.185-.3a1.7,1.7,0,0,1,1.167-.734c.173-.025,1.037-.031,1.92-.019l1.6.019.327.179a1.7,1.7,0,0,1,.7.716,31.038,31.038,0,0,1,.117,4.272c.031,4.037.031,4.117.16,4.284a1.682,1.682,0,0,0,.3.3c.167.13.235.13,3.173.13,2.981,0,3.012,0,3.42-.142a3.553,3.553,0,0,0,2.265-2.531c.043-.222.068-1.92.068-5.259v-4.938h.42a2.925,2.925,0,0,0,2.673-1.636c.21-.426.21-.438.21-1.265,0-1.407.71-.574-7.216-8.494-7.876-7.883-7.086-7.2-8.432-7.234A2.175,2.175,0,0,0,15.856-511.72Zm1.525,1.765c.364.173,13.265,13.092,13.4,13.407a.982.982,0,0,1-.037.889c-.228.475-.42.543-1.611.58-1.117.031-1.2.056-1.494.457-.13.167-.13.235-.16,5.765l-.031,5.6-.173.29a1.707,1.707,0,0,1-.37.444c-.432.333-.562.346-2.92.346H21.8v-3.457c0-2.265-.025-3.562-.068-3.778a3.486,3.486,0,0,0-2.37-2.537,7.5,7.5,0,0,0-2.438-.136c-2.21,0-2.321.012-3.111.414a3.578,3.578,0,0,0-1.7,2.259c-.043.216-.068,1.512-.068,3.778v3.457H9.862c-2.358,0-2.488-.012-2.92-.346a1.707,1.707,0,0,1-.37-.444l-.173-.29-.031-5.6c-.031-5.531-.031-5.6-.16-5.765-.3-.4-.377-.426-1.494-.457-1.191-.037-1.383-.1-1.611-.58a.982.982,0,0,1-.037-.889c.13-.309,13.037-13.228,13.395-13.407A.972.972,0,0,1,17.38-509.955Z" transform="translate(-1.129 511.86)" fill="#fff"/>
      </g>
    </g>
  </g>
</svg>
