<svg id="Group_132" data-name="Group 132" xmlns="http://www.w3.org/2000/svg" width="91.691" height="84.785" viewBox="0 0 91.691 84.785">
  <path id="Path_550" data-name="Path 550" d="M171.44,147v.015a4.454,4.454,0,0,1,4.455-4.455h0a4.454,4.454,0,0,1,4.455,4.455V147a4.454,4.454,0,0,1-4.455,4.455h0A4.454,4.454,0,0,1,171.44,147Z" transform="translate(-120.183 -99.937)" fill="#004f9f"/>
  <path id="Path_551" data-name="Path 551" d="M105.44,147v.015a4.454,4.454,0,0,1,4.455-4.455h0a4.454,4.454,0,0,1,4.455,4.455V147a4.454,4.454,0,0,1-4.455,4.455h0A4.454,4.454,0,0,1,105.44,147Z" transform="translate(-73.916 -99.937)" fill="#004f9f"/>
  <path id="Path_552" data-name="Path 552" d="M138.44,171.56v.015a4.454,4.454,0,0,1,4.455-4.455h0a4.454,4.454,0,0,1,4.455,4.455v-.015a4.454,4.454,0,0,1-4.455,4.455h0A4.454,4.454,0,0,1,138.44,171.56Z" transform="translate(-97.049 -117.155)" fill="#004f9f"/>
  <path id="Path_553" data-name="Path 553" d="M62.735,141.153l-7.968-4.6v-25.56l-6.868-3.2v32.726l14.835,8.566Z" transform="translate(-33.579 -75.563)" fill="#e28200"/>
  <path id="Path_554" data-name="Path 554" d="M139.63,225.684l.111-21.314,3.988,2.3,3.988-2.3.114,21.314-4.1,2.368Z" transform="translate(-97.883 -143.267)" fill="#004f9f"/>
  <path id="Path_555" data-name="Path 555" d="M172.62,201.124l.114-21.314,3.988,2.3,3.988-2.3.111,21.314-4.1,2.368Z" transform="translate(-121.01 -126.05)" fill="#004f9f"/>
  <path id="Path_556" data-name="Path 556" d="M106.63,201.124l.114-21.314,3.988,2.3,3.988-2.3.111,21.314-4.1,2.368Z" transform="translate(-74.75 -126.05)" fill="#004f9f"/>
  <path id="Path_557" data-name="Path 557" d="M217.128,110.992v25.56l-7.968,4.6v7.929L224,140.516V107.79Z" transform="translate(-146.625 -75.563)" fill="#e28200"/>
  <path id="Path_558" data-name="Path 558" d="M87.718,44.85a1.876,1.876,0,0,0-.8-1.54V23.592l4.772-2.224L45.846,0,0,21.368,45.846,42.736l38.9-18.13v18.7a1.891,1.891,0,0,0-.511,2.538l-2.87,6.772h1.247l2.159-4.778L83.747,52.62H90.3l-2.87-6.772a1.863,1.863,0,0,0,.284-1ZM45.846,32.227l-23.3-10.859,23.3-10.859,23.3,10.859-23.3,10.859Z" fill="#004f9f"/>
  <path id="Path_559" data-name="Path 559" d="M119.88,60.541l10-4.661,10,4.661-10,4.661Z" transform="translate(-84.038 -39.173)" fill="#e28200"/>
</svg>
