<svg xmlns="http://www.w3.org/2000/svg" width="262.43" height="84.785" viewBox="0 0 262.43 84.785">
  <g id="Group_134" data-name="Group 134" transform="translate(-83.771 -115.608)">
    <g id="Group_130" data-name="Group 130" transform="translate(187.66 173.924)">
      <path id="Path_524" data-name="Path 524" d="M348.781,203.924a2.281,2.281,0,0,1-.948-.753,1.922,1.922,0,0,1-.353-1.112h1.073a1.4,1.4,0,0,0,.448.912,1.618,1.618,0,0,0,1.145.371,1.644,1.644,0,0,0,1.136-.359,1.171,1.171,0,0,0,.416-.924,1.056,1.056,0,0,0-.242-.721,1.532,1.532,0,0,0-.61-.422,9.424,9.424,0,0,0-.984-.311,8.667,8.667,0,0,1-1.223-.4,1.972,1.972,0,0,1-.786-.625,1.834,1.834,0,0,1-.326-1.145,2,2,0,0,1,.32-1.118,2.065,2.065,0,0,1,.9-.753,3.187,3.187,0,0,1,1.333-.266,2.788,2.788,0,0,1,1.776.541,2.007,2.007,0,0,1,.78,1.438h-1.106a1.181,1.181,0,0,0-.466-.78,1.653,1.653,0,0,0-1.085-.338,1.564,1.564,0,0,0-1.028.326,1.114,1.114,0,0,0-.4.912.984.984,0,0,0,.239.688,1.537,1.537,0,0,0,.586.4,10.013,10.013,0,0,0,.981.314,9.193,9.193,0,0,1,1.229.416,2.055,2.055,0,0,1,.8.631,1.836,1.836,0,0,1,.332,1.157,2.016,2.016,0,0,1-.3,1.061,2.2,2.2,0,0,1-.885.807,2.928,2.928,0,0,1-1.384.311,3.193,3.193,0,0,1-1.366-.272Z" transform="translate(-347.48 -195.926)" fill="#595a5a"/>
      <path id="Path_525" data-name="Path 525" d="M369.067,203.3a2.726,2.726,0,0,1,1.046-1.091,2.984,2.984,0,0,1,1.534-.389,3.02,3.02,0,0,1,1.845.541,2.558,2.558,0,0,1,.957,1.507h-1.085a1.559,1.559,0,0,0-.6-.873,1.852,1.852,0,0,0-1.112-.32,1.793,1.793,0,0,0-1.4.592,2.419,2.419,0,0,0-.532,1.677,2.465,2.465,0,0,0,.532,1.692,1.779,1.779,0,0,0,1.4.6,1.88,1.88,0,0,0,1.106-.311,1.57,1.57,0,0,0,.61-.885h1.085a2.67,2.67,0,0,1-.975,1.489,2.915,2.915,0,0,1-1.827.559,3,3,0,0,1-1.534-.389,2.685,2.685,0,0,1-1.046-1.1,3.493,3.493,0,0,1-.377-1.659,3.415,3.415,0,0,1,.377-1.644Z" transform="translate(-362.349 -199.796)" fill="#595a5a"/>
      <path id="Path_526" data-name="Path 526" d="M396.672,197.358a2.091,2.091,0,0,1,.87.879,3,3,0,0,1,.314,1.429v3.576h-1V199.81a1.961,1.961,0,0,0-.454-1.39,1.624,1.624,0,0,0-1.241-.481,1.67,1.67,0,0,0-1.268.5,2.034,2.034,0,0,0-.469,1.45v3.355H392.42V195.05h1.008v2.99a1.979,1.979,0,0,1,.825-.721,2.66,2.66,0,0,1,1.178-.254A2.629,2.629,0,0,1,396.672,197.358Z" transform="translate(-378.984 -195.05)" fill="#595a5a"/>
      <path id="Path_527" data-name="Path 527" d="M416.337,207.7a2.765,2.765,0,0,1-1.085-1.1,3.367,3.367,0,0,1-.392-1.656,3.262,3.262,0,0,1,.4-1.644,2.813,2.813,0,0,1,1.1-1.1,3.374,3.374,0,0,1,3.121,0,2.779,2.779,0,0,1,1.1,1.091,3.277,3.277,0,0,1,.4,1.65,3.229,3.229,0,0,1-.416,1.656,2.88,2.88,0,0,1-1.124,1.1,3.234,3.234,0,0,1-1.573.389,3.076,3.076,0,0,1-1.546-.389Zm2.562-.753a1.941,1.941,0,0,0,.768-.762,2.459,2.459,0,0,0,.293-1.241,2.5,2.5,0,0,0-.287-1.241,1.9,1.9,0,0,0-.753-.759,2.087,2.087,0,0,0-1.008-.248,2.136,2.136,0,0,0-1.014.248,1.806,1.806,0,0,0-.735.759,2.562,2.562,0,0,0-.278,1.241,2.626,2.626,0,0,0,.272,1.25,1.787,1.787,0,0,0,.727.759,2.016,2.016,0,0,0,1,.248,2.13,2.13,0,0,0,1.02-.254Z" transform="translate(-394.715 -199.796)" fill="#595a5a"/>
      <path id="Path_528" data-name="Path 528" d="M440.037,207.7a2.765,2.765,0,0,1-1.085-1.1,3.367,3.367,0,0,1-.392-1.656,3.262,3.262,0,0,1,.4-1.644,2.813,2.813,0,0,1,1.1-1.1,3.374,3.374,0,0,1,3.121,0,2.778,2.778,0,0,1,1.1,1.091,3.277,3.277,0,0,1,.4,1.65,3.23,3.23,0,0,1-.416,1.656,2.88,2.88,0,0,1-1.124,1.1,3.234,3.234,0,0,1-1.573.389,3.076,3.076,0,0,1-1.546-.389Zm2.562-.753a1.941,1.941,0,0,0,.768-.762,2.458,2.458,0,0,0,.293-1.241,2.5,2.5,0,0,0-.287-1.241,1.9,1.9,0,0,0-.753-.759,2.087,2.087,0,0,0-1.008-.248,2.136,2.136,0,0,0-1.014.248,1.805,1.805,0,0,0-.735.759,2.562,2.562,0,0,0-.278,1.241,2.626,2.626,0,0,0,.272,1.25,1.786,1.786,0,0,0,.727.759,2.016,2.016,0,0,0,1,.248,2.13,2.13,0,0,0,1.02-.254Z" transform="translate(-411.329 -199.796)" fill="#595a5a"/>
      <path id="Path_529" data-name="Path 529" d="M464.518,195.05v8.192H463.51V195.05Z" transform="translate(-428.819 -195.05)" fill="#595a5a"/>
      <path id="Path_530" data-name="Path 530" d="M490.327,196.83v7.66H489.32v-5.714l-2.547,5.714h-.709l-2.556-5.722v5.722H482.5v-7.66h1.085l2.834,6.332,2.834-6.332Z" transform="translate(-442.132 -196.298)" fill="#595a5a"/>
      <path id="Path_531" data-name="Path 531" d="M513.5,203.3a2.738,2.738,0,0,1,1.034-1.091A2.822,2.822,0,0,1,516,201.82a2.657,2.657,0,0,1,1.384.344,2.287,2.287,0,0,1,.873.864v-1.106h1.019v6.066h-1.019v-1.13a2.373,2.373,0,0,1-.891.879,2.69,2.69,0,0,1-1.378.35,2.737,2.737,0,0,1-2.49-1.516,3.483,3.483,0,0,1-.377-1.638A3.425,3.425,0,0,1,513.5,203.3Zm4.485.448a1.979,1.979,0,0,0-.747-.78,2.112,2.112,0,0,0-2.063-.006,1.931,1.931,0,0,0-.741.774,2.463,2.463,0,0,0-.278,1.2,2.523,2.523,0,0,0,.278,1.211,1.963,1.963,0,0,0,.741.786,1.99,1.99,0,0,0,1.029.272,2.019,2.019,0,0,0,1.035-.272,1.938,1.938,0,0,0,.747-.786,2.75,2.75,0,0,0,0-2.4Z" transform="translate(-463.597 -199.796)" fill="#595a5a"/>
      <path id="Path_532" data-name="Path 532" d="M544.168,202.46a2.578,2.578,0,0,1,.688,1.931v3.576h-1v-3.432a1.961,1.961,0,0,0-.454-1.39,1.624,1.624,0,0,0-1.241-.481,1.67,1.67,0,0,0-1.268.5,2.034,2.034,0,0,0-.469,1.45v3.355H539.42V201.9h1.008v.864a2,2,0,0,1,.813-.721,2.512,2.512,0,0,1,1.133-.254,2.463,2.463,0,0,1,1.794.67Z" transform="translate(-482.034 -199.775)" fill="#595a5a"/>
      <path id="Path_533" data-name="Path 533" d="M562.227,203.3a2.737,2.737,0,0,1,1.035-1.091,2.822,2.822,0,0,1,1.468-.389,2.657,2.657,0,0,1,1.384.344,2.287,2.287,0,0,1,.873.864v-1.106h1.019v6.066h-1.019v-1.13a2.374,2.374,0,0,1-.891.879,2.69,2.69,0,0,1-1.378.35,2.737,2.737,0,0,1-2.49-1.516,3.483,3.483,0,0,1-.377-1.638A3.425,3.425,0,0,1,562.227,203.3Zm4.485.448a1.979,1.979,0,0,0-.747-.78,2.112,2.112,0,0,0-2.063-.006,1.93,1.93,0,0,0-.741.774,2.462,2.462,0,0,0-.278,1.2,2.523,2.523,0,0,0,.278,1.211,1.963,1.963,0,0,0,.741.786,1.99,1.99,0,0,0,1.029.272,2.019,2.019,0,0,0,1.034-.272,1.938,1.938,0,0,0,.747-.786,2.75,2.75,0,0,0,0-2.4Z" transform="translate(-497.758 -199.796)" fill="#595a5a"/>
      <path id="Path_534" data-name="Path 534" d="M591.137,202.15a2.283,2.283,0,0,1,.879.864v-1.106h1.019v6.2a3.024,3.024,0,0,1-.356,1.477,2.543,2.543,0,0,1-1.014,1.014,3.1,3.1,0,0,1-1.534.365,3.348,3.348,0,0,1-1.991-.565,2.2,2.2,0,0,1-.942-1.54h1a1.575,1.575,0,0,0,.688.891,2.25,2.25,0,0,0,1.25.338,1.853,1.853,0,0,0,1.357-.52,1.968,1.968,0,0,0,.526-1.462v-1.274a2.437,2.437,0,0,1-.885.885,2.605,2.605,0,0,1-1.372.353,2.819,2.819,0,0,1-1.468-.4,2.772,2.772,0,0,1-1.034-1.118,3.483,3.483,0,0,1-.377-1.638,3.425,3.425,0,0,1,.377-1.632,2.737,2.737,0,0,1,1.034-1.091,2.822,2.822,0,0,1,1.468-.389,2.642,2.642,0,0,1,1.378.344Zm.6,1.582a1.98,1.98,0,0,0-.747-.78,2.111,2.111,0,0,0-2.063-.006,1.931,1.931,0,0,0-.742.774,2.462,2.462,0,0,0-.278,1.2,2.523,2.523,0,0,0,.278,1.211,1.964,1.964,0,0,0,.742.786,1.989,1.989,0,0,0,1.028.272,2.019,2.019,0,0,0,1.034-.272,1.939,1.939,0,0,0,.747-.786,2.751,2.751,0,0,0,0-2.4Z" transform="translate(-515.304 -199.782)" fill="#595a5a"/>
      <path id="Path_535" data-name="Path 535" d="M617.788,205.316h-4.849a1.907,1.907,0,0,0,1.973,1.9,1.864,1.864,0,0,0,1.091-.3,1.617,1.617,0,0,0,.613-.813H617.7a2.6,2.6,0,0,1-.975,1.423,2.941,2.941,0,0,1-1.815.547,3.052,3.052,0,0,1-1.546-.389,2.723,2.723,0,0,1-1.067-1.1,3.763,3.763,0,0,1-.012-3.307,2.66,2.66,0,0,1,1.058-1.091,3.151,3.151,0,0,1,1.567-.383,3,3,0,0,1,1.528.377,2.6,2.6,0,0,1,1.023,1.034,3.064,3.064,0,0,1,.359,1.489c0,.191-.012.395-.033.61Zm-1.262-1.809a1.655,1.655,0,0,0-.691-.631,2.163,2.163,0,0,0-.969-.215,1.865,1.865,0,0,0-1.3.487,1.978,1.978,0,0,0-.613,1.351h3.83a1.846,1.846,0,0,0-.254-.99Z" transform="translate(-532.851 -199.782)" fill="#595a5a"/>
      <path id="Path_536" data-name="Path 536" d="M644.691,202.069a2.1,2.1,0,0,1,.873.879,2.96,2.96,0,0,1,.32,1.429v3.576h-1v-3.432a1.974,1.974,0,0,0-.448-1.39,1.579,1.579,0,0,0-1.211-.481,1.64,1.64,0,0,0-1.25.5,2.068,2.068,0,0,0-.463,1.456v3.343h-1v-3.432a1.973,1.973,0,0,0-.448-1.39,1.578,1.578,0,0,0-1.211-.481,1.64,1.64,0,0,0-1.25.5,2.067,2.067,0,0,0-.463,1.456v3.343H636.14v-6.066h1.008v.873a1.984,1.984,0,0,1,.8-.73,2.416,2.416,0,0,1,1.112-.254,2.619,2.619,0,0,1,1.351.344,2.094,2.094,0,0,1,.873,1.008,2,2,0,0,1,.84-1,2.475,2.475,0,0,1,1.307-.353,2.638,2.638,0,0,1,1.262.293Z" transform="translate(-549.836 -199.761)" fill="#595a5a"/>
      <path id="Path_537" data-name="Path 537" d="M678.878,205.316h-4.849a1.907,1.907,0,0,0,1.973,1.9,1.864,1.864,0,0,0,1.091-.3,1.616,1.616,0,0,0,.613-.813h1.085a2.6,2.6,0,0,1-.975,1.423,2.941,2.941,0,0,1-1.815.547,3.052,3.052,0,0,1-1.546-.389,2.723,2.723,0,0,1-1.067-1.1,3.763,3.763,0,0,1-.012-3.307,2.66,2.66,0,0,1,1.058-1.091A3.151,3.151,0,0,1,676,201.8a3,3,0,0,1,1.528.377,2.6,2.6,0,0,1,1.023,1.034,3.064,3.064,0,0,1,.359,1.489c0,.191-.012.395-.033.61Zm-1.262-1.809a1.654,1.654,0,0,0-.691-.631,2.163,2.163,0,0,0-.969-.215,1.864,1.864,0,0,0-1.3.487,1.978,1.978,0,0,0-.613,1.351h3.83a1.846,1.846,0,0,0-.254-.99Z" transform="translate(-575.676 -199.782)" fill="#595a5a"/>
      <path id="Path_538" data-name="Path 538" d="M701.968,202.46a2.578,2.578,0,0,1,.688,1.931v3.576h-1v-3.432a1.961,1.961,0,0,0-.454-1.39,1.623,1.623,0,0,0-1.241-.481,1.67,1.67,0,0,0-1.268.5,2.034,2.034,0,0,0-.469,1.45v3.355H697.22V201.9h1.008v.864a2,2,0,0,1,.813-.721,2.512,2.512,0,0,1,1.133-.254,2.463,2.463,0,0,1,1.794.67Z" transform="translate(-592.655 -199.775)" fill="#595a5a"/>
      <path id="Path_539" data-name="Path 539" d="M720.807,199.4v3.576a.849.849,0,0,0,.188.625.923.923,0,0,0,.652.182h.741v.852h-.909a1.8,1.8,0,0,1-1.262-.389,1.658,1.658,0,0,1-.422-1.274V199.4h-.786v-.831h.786V197.04H720.8v1.528h1.582v.831H720.8Z" transform="translate(-607.93 -196.445)" fill="#595a5a"/>
      <path id="Path_540" data-name="Path 540" d="M744.831,203.924a2.281,2.281,0,0,1-.948-.753,1.923,1.923,0,0,1-.353-1.112H744.6a1.4,1.4,0,0,0,.448.912,1.618,1.618,0,0,0,1.145.371,1.644,1.644,0,0,0,1.136-.359,1.171,1.171,0,0,0,.416-.924,1.056,1.056,0,0,0-.242-.721,1.532,1.532,0,0,0-.61-.422,9.428,9.428,0,0,0-.984-.311,8.664,8.664,0,0,1-1.223-.4,1.972,1.972,0,0,1-.786-.625,1.835,1.835,0,0,1-.326-1.145,2,2,0,0,1,.32-1.118,2.065,2.065,0,0,1,.9-.753,3.188,3.188,0,0,1,1.333-.266,2.788,2.788,0,0,1,1.776.541,2.007,2.007,0,0,1,.78,1.438h-1.106a1.181,1.181,0,0,0-.466-.78,1.654,1.654,0,0,0-1.085-.338,1.565,1.565,0,0,0-1.029.326,1.114,1.114,0,0,0-.4.912.984.984,0,0,0,.239.688,1.537,1.537,0,0,0,.586.4,10.02,10.02,0,0,0,.981.314,9.2,9.2,0,0,1,1.229.416,2.054,2.054,0,0,1,.8.631,1.836,1.836,0,0,1,.332,1.157,2.016,2.016,0,0,1-.3,1.061,2.2,2.2,0,0,1-.885.807,2.928,2.928,0,0,1-1.384.311,3.193,3.193,0,0,1-1.366-.272Z" transform="translate(-625.119 -195.926)" fill="#595a5a"/>
      <path id="Path_541" data-name="Path 541" d="M769.544,202.16l-3.654,8.922h-1.04l1.2-2.921-2.446-6h1.118l1.9,4.915,1.881-4.915Z" transform="translate(-639.189 -200.034)" fill="#595a5a"/>
      <path id="Path_542" data-name="Path 542" d="M786.976,207.857a2.1,2.1,0,0,1-.873-.664,1.746,1.746,0,0,1-.353-.981h1.041a1.015,1.015,0,0,0,.428.741,1.625,1.625,0,0,0,1,.287,1.464,1.464,0,0,0,.909-.254.778.778,0,0,0,.332-.643.636.636,0,0,0-.353-.592,4.977,4.977,0,0,0-1.1-.383,8.078,8.078,0,0,1-1.1-.359,1.935,1.935,0,0,1-.729-.541,1.534,1.534,0,0,1-.027-1.8,1.866,1.866,0,0,1,.786-.613,2.8,2.8,0,0,1,1.163-.227,2.485,2.485,0,0,1,1.627.508,1.84,1.84,0,0,1,.664,1.4h-1.008a1.032,1.032,0,0,0-.383-.762,1.428,1.428,0,0,0-.936-.287,1.444,1.444,0,0,0-.864.233.717.717,0,0,0-.32.61.669.669,0,0,0,.194.493,1.406,1.406,0,0,0,.487.311,8.127,8.127,0,0,0,.813.26,8.476,8.476,0,0,1,1.061.35,1.9,1.9,0,0,1,.7.514,1.393,1.393,0,0,1,.3.9,1.532,1.532,0,0,1-.278.9,1.838,1.838,0,0,1-.78.625,2.765,2.765,0,0,1-1.157.227,3.126,3.126,0,0,1-1.25-.239Z" transform="translate(-654.716 -199.803)" fill="#595a5a"/>
      <path id="Path_543" data-name="Path 543" d="M806.077,199.4v3.576a.849.849,0,0,0,.188.625.923.923,0,0,0,.652.182h.742v.852h-.909a1.8,1.8,0,0,1-1.262-.389,1.658,1.658,0,0,1-.422-1.274V199.4h-.786v-.831h.786V197.04h1.008v1.528h1.582v.831h-1.582Z" transform="translate(-667.706 -196.445)" fill="#595a5a"/>
      <path id="Path_544" data-name="Path 544" d="M824.278,205.316h-4.849a1.907,1.907,0,0,0,1.973,1.9,1.864,1.864,0,0,0,1.091-.3,1.616,1.616,0,0,0,.613-.813h1.085a2.6,2.6,0,0,1-.975,1.423,2.941,2.941,0,0,1-1.815.547,3.052,3.052,0,0,1-1.546-.389,2.722,2.722,0,0,1-1.067-1.1,3.763,3.763,0,0,1-.012-3.307,2.66,2.66,0,0,1,1.058-1.091,3.151,3.151,0,0,1,1.567-.383,3,3,0,0,1,1.528.377,2.6,2.6,0,0,1,1.023,1.034,3.064,3.064,0,0,1,.359,1.489c0,.191-.012.395-.033.61Zm-1.262-1.809a1.654,1.654,0,0,0-.691-.631,2.163,2.163,0,0,0-.969-.215,1.864,1.864,0,0,0-1.3.487,1.978,1.978,0,0,0-.613,1.351h3.83a1.846,1.846,0,0,0-.254-.99Z" transform="translate(-677.604 -199.782)" fill="#595a5a"/>
      <path id="Path_545" data-name="Path 545" d="M851.181,202.069a2.1,2.1,0,0,1,.873.879,2.961,2.961,0,0,1,.32,1.429v3.576h-1v-3.432a1.974,1.974,0,0,0-.448-1.39,1.579,1.579,0,0,0-1.211-.481,1.64,1.64,0,0,0-1.25.5,2.068,2.068,0,0,0-.463,1.456v3.343h-1v-3.432a1.973,1.973,0,0,0-.448-1.39,1.578,1.578,0,0,0-1.211-.481,1.64,1.64,0,0,0-1.25.5,2.067,2.067,0,0,0-.463,1.456v3.343H842.63v-6.066h1.008v.873a1.984,1.984,0,0,1,.8-.73,2.415,2.415,0,0,1,1.112-.254,2.618,2.618,0,0,1,1.351.344,2.094,2.094,0,0,1,.873,1.008,2,2,0,0,1,.84-1,2.475,2.475,0,0,1,1.307-.353,2.638,2.638,0,0,1,1.262.293Z" transform="translate(-694.59 -199.761)" fill="#595a5a"/>
    </g>
    <g id="Group_131" data-name="Group 131" transform="translate(189.352 132.578)">
      <path id="Path_546" data-name="Path 546" d="M353.14,91.31V56.76h6.909V70.579h27.638a6.59,6.59,0,0,1-2.051,4.912,6.725,6.725,0,0,1-4.858,2H360.049V91.307H353.14Zm34.547,0V56.76H394.6V91.307h-6.909Z" transform="translate(-353.14 -56.76)" fill="#004f9f"/>
      <path id="Path_547" data-name="Path 547" d="M501.043,107.518V86.789a6.615,6.615,0,0,1,2-4.858,6.7,6.7,0,0,1,4.912-2.051H535.59v27.638h-6.909V86.789H511.406a3.41,3.41,0,0,0-3.456,3.453v10.366h20.728a6.59,6.59,0,0,1-2.051,4.912,6.725,6.725,0,0,1-4.858,2H501.04Z" transform="translate(-456.821 -72.968)" fill="#004f9f"/>
      <path id="Path_548" data-name="Path 548" d="M625.84,107.511V79.873h6.909V100.6h10.366V79.873h6.909V100.6h6.909a3.41,3.41,0,0,0,3.453-3.456V79.87H667.3V100.6a6.59,6.59,0,0,1-2.051,4.912,6.724,6.724,0,0,1-4.858,2H625.84Z" transform="translate(-544.308 -72.961)" fill="#004f9f"/>
      <path id="Path_549" data-name="Path 549" d="M773.75,91.31V56.76h6.909V91.307H773.75Zm20.728,0L780.659,77.491l13.819-13.819h10.366L791.025,77.491,804.844,91.31H794.478Z" transform="translate(-647.996 -56.76)" fill="#004f9f"/>
    </g>
    <g id="Group_132" data-name="Group 132" transform="translate(83.771 115.608)">
      <path id="Path_550" data-name="Path 550" d="M171.44,147v.015a4.454,4.454,0,0,1,4.455-4.455h0a4.454,4.454,0,0,1,4.455,4.455V147a4.454,4.454,0,0,1-4.455,4.455h0A4.454,4.454,0,0,1,171.44,147Z" transform="translate(-120.183 -99.937)" fill="#004f9f"/>
      <path id="Path_551" data-name="Path 551" d="M105.44,147v.015a4.454,4.454,0,0,1,4.455-4.455h0a4.454,4.454,0,0,1,4.455,4.455V147a4.454,4.454,0,0,1-4.455,4.455h0A4.454,4.454,0,0,1,105.44,147Z" transform="translate(-73.916 -99.937)" fill="#004f9f"/>
      <path id="Path_552" data-name="Path 552" d="M138.44,171.56v.015a4.454,4.454,0,0,1,4.455-4.455h0a4.454,4.454,0,0,1,4.455,4.455v-.015a4.454,4.454,0,0,1-4.455,4.455h0A4.454,4.454,0,0,1,138.44,171.56Z" transform="translate(-97.049 -117.155)" fill="#004f9f"/>
      <path id="Path_553" data-name="Path 553" d="M62.735,141.153l-7.968-4.6v-25.56l-6.868-3.2v32.726l14.835,8.566Z" transform="translate(-33.579 -75.563)" fill="#e28200"/>
      <path id="Path_554" data-name="Path 554" d="M139.63,225.684l.111-21.314,3.988,2.3,3.988-2.3.114,21.314-4.1,2.368Z" transform="translate(-97.883 -143.267)" fill="#004f9f"/>
      <path id="Path_555" data-name="Path 555" d="M172.62,201.124l.114-21.314,3.988,2.3,3.988-2.3.111,21.314-4.1,2.368Z" transform="translate(-121.01 -126.05)" fill="#004f9f"/>
      <path id="Path_556" data-name="Path 556" d="M106.63,201.124l.114-21.314,3.988,2.3,3.988-2.3.111,21.314-4.1,2.368Z" transform="translate(-74.75 -126.05)" fill="#004f9f"/>
      <path id="Path_557" data-name="Path 557" d="M217.128,110.992v25.56l-7.968,4.6v7.929L224,140.516V107.79Z" transform="translate(-146.625 -75.563)" fill="#e28200"/>
      <path id="Path_558" data-name="Path 558" d="M87.718,44.85a1.876,1.876,0,0,0-.8-1.54V23.592l4.772-2.224L45.846,0,0,21.368,45.846,42.736l38.9-18.13v18.7a1.891,1.891,0,0,0-.511,2.538l-2.87,6.772h1.247l2.159-4.778L83.747,52.62H90.3l-2.87-6.772a1.863,1.863,0,0,0,.284-1ZM45.846,32.227l-23.3-10.859,23.3-10.859,23.3,10.859-23.3,10.859Z" fill="#004f9f"/>
      <path id="Path_559" data-name="Path 559" d="M119.88,60.541l10-4.661,10,4.661-10,4.661Z" transform="translate(-84.038 -39.173)" fill="#e28200"/>
    </g>
  </g>
</svg>
